<svg width="319" height="71" viewBox="0 0 319 71" fill="none" xmlns="http://www.w3.org/2000/svg">
    <path d="M78.1946 47.294C80.8181 54.4128 79.4738 61.4157 72.3706 65.7895C72.0427 65.9865 71.6964 66.1833 71.352 66.3815C66.3498 69.143 60.5916 70.7206 54.4563 70.7206H21.0385V43.185C30.4717 43.7768 43.5799 44.9446 53.4226 47.294C53.4226 47.294 52.4047 40.1098 49.9444 35.5892C49.9444 35.5892 70.7615 36.6092 78.1946 47.294Z" fill="url(#paint0_linear)"/>
    <path d="M78.7282 47.2096C72.6093 38.4136 57.4282 36.1694 52.2504 35.6498C62.5259 43.7405 70.9268 54.7443 62.9449 66.0449C61.8153 67.6438 60.5374 69.0773 59.1553 70.382C63.7324 69.8388 68.033 68.4225 71.8857 66.2971C72.23 66.0989 72.5764 65.9021 72.9042 65.705C80.0074 61.3312 81.3518 54.3284 78.7282 47.2096Z" fill="url(#paint1_linear)"/>
    <path d="M20.9706 0.415193V18.8945H0.0385284C0.0385284 18.8945 9.91453 21.8027 20.9706 25.3535C27.6643 27.4905 34.8004 29.8591 40.4439 31.9472C40.4439 31.9472 38.4919 24.3025 36.1303 18.8945C47.0546 21.4913 61.4915 27.0485 70.1859 35.5469C73.8932 39.1802 76.6499 43.2245 78.1266 47.2517C80.7502 54.3705 79.4058 61.3734 72.3026 65.7471C77.5738 62.6084 81.9395 58.1138 84.952 52.7525C89.5112 28.206 51.537 4.54615 20.9706 0.415193" fill="url(#paint2_linear)"/>
    <path d="M54.3391 0.279372H20.9214C51.4878 4.41033 89.462 28.0702 84.9028 52.6167C87.7589 47.5317 89.3961 41.6687 89.3961 35.4111C89.3961 15.9976 73.713 0.279372 54.3391 0.279372" fill="url(#paint3_linear)"/>
    <path d="M20.8161 0.399873C20.8161 0.399873 21.1666 0.438363 21.8237 0.510534C22.478 0.59714 23.4438 0.650067 24.6613 0.86452C25.8842 1.03979 27.361 1.29274 29.0469 1.63229C30.7328 1.97528 32.6328 2.39249 34.6713 2.97398C36.7166 3.53211 38.9088 4.22221 41.2086 5.01059C43.5029 5.81479 45.9084 6.71797 48.3276 7.81566C53.1748 9.97805 58.2073 12.6305 62.94 15.7751C67.6487 18.9479 72.0391 22.6266 75.6579 26.5637C77.5051 28.5 79.0271 30.6136 80.379 32.6577C81.7069 34.726 82.7474 36.8162 83.5574 38.8012C84.3161 40.809 84.8449 42.7143 85.0671 44.443C85.1947 45.3042 85.3003 46.1077 85.3003 46.8631C85.3326 47.6144 85.3737 48.3011 85.3065 48.9211C85.2653 49.5417 85.2427 50.0964 85.1865 50.5721C85.1021 51.0456 85.0294 51.4498 84.9711 51.7749C84.8545 52.4265 84.7928 52.7743 84.7928 52.7743C84.7928 52.7743 84.8236 52.4224 84.8833 51.7639C84.9128 51.4347 84.9485 51.0305 84.9917 50.5549C84.9896 50.0799 84.9882 49.5314 84.9869 48.9169C85.0136 48.3045 84.9293 47.6302 84.8497 46.8982C84.8024 46.1627 84.6453 45.3826 84.4649 44.553C84.1363 42.8875 83.4985 41.0771 82.7049 39.1559C81.8413 37.263 80.7542 35.2813 79.3831 33.3258C77.99 31.391 76.4214 29.4176 74.6161 27.535C71.0398 23.7449 66.6898 20.1982 62.0277 17.1395C57.4233 13.9901 52.4992 11.3108 47.7425 9.11268C45.3576 8.02392 43.0331 7.01284 40.795 6.12959C38.5542 5.25941 36.4121 4.49096 34.4086 3.8586C32.4071 3.22143 30.5586 2.67842 28.909 2.22546C27.2574 1.77937 25.8088 1.4302 24.6078 1.17863C22.203 0.652126 20.8161 0.399873 20.8161 0.399873" fill="url(#paint4_linear)"/>
    <path d="M114.446 49.1375H102.374V21.8854L114.446 21.8453C114.484 21.8453 114.523 21.8453 114.561 21.8453C116.716 21.83 118.688 22.1625 120.477 22.8428C122.296 23.523 123.811 24.4708 125.023 25.6861C126.238 26.9013 127.18 28.344 127.849 30.0141C128.514 31.6879 128.846 33.5032 128.846 35.4599C128.846 38.0853 128.242 40.4375 127.035 42.5165C125.827 44.5917 124.124 46.2139 121.927 47.3834C119.733 48.5528 117.24 49.1375 114.446 49.1375ZM108.96 27.9561V43.0439H114.446C116.743 43.0439 118.608 42.3484 120.041 40.9573C121.47 39.5662 122.185 37.7337 122.185 35.4599C122.185 33.0561 121.489 31.2045 120.098 29.9051C118.707 28.6058 116.823 27.9561 114.446 27.9561H108.96ZM131.707 35.5C131.707 33.593 132.075 31.7701 132.813 30.0312C133.55 28.2962 134.546 26.7943 135.8 25.5255C137.053 24.2606 138.549 23.2517 140.288 22.4988C142.027 21.7498 143.855 21.3753 145.774 21.3753C147.669 21.3753 149.489 21.7498 151.231 22.4988C152.974 23.2517 154.472 24.2606 155.725 25.5255C156.979 26.7943 157.982 28.3001 158.735 30.0427C159.488 31.7854 159.864 33.6045 159.864 35.5C159.864 37.407 159.492 39.2318 158.746 40.9745C158.001 42.721 156.998 44.2248 155.737 45.4859C154.476 46.7432 152.974 47.7483 151.231 48.5012C149.489 49.2502 147.669 49.6247 145.774 49.6247C143.213 49.6247 140.852 48.9923 138.689 47.7273C136.529 46.4585 134.825 44.7445 133.575 42.5853C132.329 40.4223 131.707 38.0605 131.707 35.5ZM137.72 35.5C137.72 37.7204 138.507 39.6121 140.082 41.1751C141.656 42.7343 143.554 43.514 145.774 43.514C147.968 43.514 149.848 42.7343 151.415 41.1751C152.985 39.6121 153.771 37.7204 153.771 35.5C153.771 33.3064 152.985 31.4261 151.415 29.8593C149.848 28.2924 147.968 27.509 145.774 27.509C143.554 27.509 141.656 28.2886 140.082 29.8478C138.507 31.407 137.72 33.2911 137.72 35.5ZM170.773 49.1375H164.192V21.8453H171.478L181.006 41.8687L190.464 21.8453H197.813V49.1375H191.192V35.2076L184.646 49.1375H177.302L170.773 35.2076V49.1375ZM210.453 49.1375H203.867V21.8453H210.453V49.1375ZM222.755 49.1375H216.134V21.8453H222.755L236.57 38.4981V21.8453H243.191V49.1375H236.57L222.755 32.4446V49.1375ZM255.499 49.1375H248.912V21.8453H255.499V49.1375ZM259.827 35.5C259.827 33.593 260.195 31.7701 260.933 30.0312C261.671 28.2962 262.666 26.7943 263.92 25.5255C265.173 24.2606 266.669 23.2517 268.408 22.4988C270.147 21.7498 271.976 21.3753 273.894 21.3753C275.79 21.3753 277.609 21.7498 279.351 22.4988C281.094 23.2517 282.592 24.2606 283.846 25.5255C285.103 26.7943 286.106 28.3001 286.855 30.0427C287.608 31.7854 287.984 33.6045 287.984 35.5C287.984 37.407 287.612 39.2318 286.867 40.9745C286.121 42.721 285.118 44.2248 283.857 45.4859C282.596 46.7432 281.094 47.7483 279.351 48.5012C277.609 49.2502 275.79 49.6247 273.894 49.6247C271.334 49.6247 268.974 48.9923 266.815 47.7273C264.651 46.4585 262.945 44.7445 261.695 42.5853C260.45 40.4223 259.827 38.0605 259.827 35.5ZM265.84 35.5C265.84 37.7204 266.627 39.6121 268.202 41.1751C269.776 42.7343 271.674 43.514 273.894 43.514C276.088 43.514 277.968 42.7343 279.535 41.1751C281.105 39.6121 281.891 37.7204 281.891 35.5C281.891 33.3064 281.105 31.4261 279.535 29.8593C277.968 28.2924 276.088 27.509 273.894 27.509C271.674 27.509 269.776 28.2886 268.202 29.8478C266.627 31.407 265.84 33.2911 265.84 35.5ZM298.521 49.1375H291.9V21.8453H298.521L312.336 38.4981V21.8453H318.957V49.1375H312.336L298.521 32.4446V49.1375Z" fill="#2C4891"/>
    <defs>
        <linearGradient id="paint0_linear" x1="2.68659" y1="48.7072" x2="74.6346" y2="21.4077" gradientUnits="userSpaceOnUse">
            <stop stop-color="#50ADE5"/>
            <stop offset="0.556103" stop-color="#3871C1"/>
            <stop offset="1" stop-color="#2C3892"/>
        </linearGradient>
        <linearGradient id="paint1_linear" x1="4.62148" y1="52.3262" x2="76.5729" y2="25.0253" gradientUnits="userSpaceOnUse">
            <stop stop-color="#479BD2"/>
            <stop offset="0.556103" stop-color="#3064AE"/>
            <stop offset="1" stop-color="#2A347B"/>
        </linearGradient>
        <linearGradient id="paint2_linear" x1="64.0746" y1="88.4383" x2="-10.1157" y2="10.5076" gradientUnits="userSpaceOnUse">
            <stop stop-color="#50ADE5"/>
            <stop offset="0.556103" stop-color="#3871C1"/>
            <stop offset="1" stop-color="#2C3892"/>
        </linearGradient>
        <linearGradient id="paint3_linear" x1="93.0273" y1="53.9914" x2="-11.9648" y2="53.9914" gradientUnits="userSpaceOnUse">
            <stop stop-color="#50ADE5"/>
            <stop offset="0.556103" stop-color="#3871C1"/>
            <stop offset="1" stop-color="#2C3892"/>
        </linearGradient>
        <linearGradient id="paint4_linear" x1="83.7831" y1="54.0177" x2="-30.4454" y2="37.646" gradientUnits="userSpaceOnUse">
            <stop stop-color="#84BAE8"/>
            <stop offset="0.556103" stop-color="#3871C1"/>
            <stop offset="1" stop-color="#2C3892"/>
        </linearGradient>
    </defs>
</svg>
