<?xml version="1.0" standalone="no"?>
<!DOCTYPE svg PUBLIC "-//W3C//DTD SVG 20010904//EN"
 "http://www.w3.org/TR/2001/REC-SVG-20010904/DTD/svg10.dtd">
<svg version="1.0" xmlns="http://www.w3.org/2000/svg"
 width="720.000000pt" height="720.000000pt" viewBox="0 0 720.000000 720.000000"
 preserveAspectRatio="xMidYMid meet">
<metadata>
Created by potrace 1.11, written by Peter Selinger 2001-2013
</metadata>
<g transform="translate(0.000000,720.000000) scale(0.100000,-0.100000)"
fill="#000000" stroke="none">
<path d="M1684 6402 c-6 -11 -9 -297 -8 -744 l1 -728 -56 0 c-31 0 -401 -1
-823 -1 -423 0 -768 -3 -768 -7 0 -4 11 -9 26 -10 14 -1 33 -6 43 -11 10 -6
29 -12 42 -15 22 -5 50 -13 226 -67 38 -11 75 -22 83 -24 8 -2 16 -4 18 -5 1
-2 5 -3 10 -4 10 -2 117 -35 187 -57 33 -10 103 -32 155 -48 52 -16 136 -42
185 -57 50 -16 92 -29 95 -29 10 -2 215 -66 230 -72 8 -4 18 -7 23 -8 4 -2 8
-3 10 -5 1 -1 9 -3 17 -5 19 -3 180 -53 200 -62 8 -3 20 -7 25 -9 9 -2 164
-52 300 -96 33 -10 65 -20 70 -22 13 -4 30 -10 90 -30 28 -10 61 -20 75 -22
13 -3 29 -9 35 -14 5 -4 12 -8 15 -7 6 1 332 -107 555 -185 94 -32 175 -60
180 -62 6 -2 17 -5 25 -9 8 -3 69 -24 135 -48 66 -23 126 -47 133 -53 11 -8
13 -3 8 24 -15 90 -196 676 -246 795 -29 70 -80 207 -80 216 0 5 4 8 8 5 5 -3
20 -7 35 -10 15 -4 38 -8 51 -11 13 -3 42 -11 65 -19 22 -9 41 -13 41 -11 0 3
12 0 28 -6 15 -6 36 -13 47 -15 72 -14 545 -168 675 -219 127 -50 251 -100
285 -115 22 -9 90 -39 150 -66 165 -72 491 -240 557 -286 14 -10 29 -18 32
-18 6 0 76 -44 206 -129 326 -213 619 -480 830 -758 38 -51 70 -97 70 -102 0
-5 4 -11 8 -13 9 -3 72 -96 72 -105 0 -4 6 -14 14 -22 18 -21 119 -211 112
-211 -3 0 -25 19 -49 43 -138 135 -349 278 -538 365 -181 83 -231 103 -409
162 -113 38 -246 75 -305 87 -41 7 -48 9 -65 16 -15 6 -55 15 -95 21 -11 2
-20 4 -20 6 0 1 -11 3 -25 5 -14 1 -38 5 -55 9 -80 15 -122 22 -190 31 -22 4
-47 8 -55 10 -8 2 -46 7 -85 10 -38 4 -77 8 -87 11 -9 3 -19 0 -23 -6 -3 -6
-10 -8 -15 -5 -11 7 -170 18 -170 12 0 -3 14 -33 31 -67 17 -35 42 -93 55
-129 14 -36 28 -73 31 -81 3 -8 7 -19 8 -25 2 -5 12 -41 25 -80 27 -88 32
-106 33 -127 1 -10 4 -18 7 -18 4 0 7 -6 7 -12 1 -23 14 -81 20 -91 3 -5 7
-21 8 -36 1 -14 6 -42 11 -61 4 -19 8 -37 9 -40 11 -47 26 -152 22 -156 -2 -3
-65 9 -138 25 -74 16 -150 32 -169 36 -19 3 -57 10 -85 15 -27 5 -66 12 -85
15 -19 4 -72 13 -118 21 -45 8 -98 16 -117 19 -19 3 -52 7 -72 10 -20 3 -48 7
-62 9 -14 3 -44 7 -66 10 -22 3 -60 8 -85 12 -25 3 -56 7 -70 9 -48 5 -135 16
-165 21 -16 3 -52 7 -80 10 -115 10 -141 13 -170 18 -16 2 -64 8 -105 11 -41
4 -93 9 -115 11 -22 2 -65 6 -95 9 -30 2 -80 7 -110 10 -30 3 -84 7 -120 10
-36 3 -96 8 -135 11 -109 9 -151 12 -274 19 -63 4 -122 8 -131 10 -15 3 -16
-85 -16 -1098 l1 -1102 1410 0 c1273 0 1511 3 1610 19 17 3 66 10 110 17 44 6
89 13 100 16 11 2 34 6 50 9 17 3 44 9 60 14 17 5 41 11 55 14 50 8 85 19 98
29 6 5 12 7 12 4 0 -8 177 53 283 97 233 96 430 213 563 333 18 15 67 59 110
98 180 159 313 303 482 520 4 6 31 46 60 90 29 44 56 85 60 90 7 10 31 57 74
150 13 28 26 52 31 53 4 2 7 8 7 12 0 5 18 47 40 94 22 47 40 92 40 100 0 9 4
16 8 16 5 0 9 6 9 13 0 6 7 28 15 47 25 57 92 270 103 331 3 13 7 35 10 49 3
14 7 35 10 48 2 13 6 31 9 40 10 33 33 214 41 322 5 71 6 299 1 370 -10 128
-16 197 -21 220 -3 14 -8 48 -11 75 -4 28 -9 54 -11 58 -3 5 -7 23 -10 40 -13
92 -92 361 -138 472 -67 160 -158 341 -221 437 -13 21 -24 42 -24 47 0 5 -3
11 -7 13 -5 2 -32 39 -62 83 -30 44 -57 82 -61 85 -3 3 -25 29 -48 59 -51 65
-185 214 -226 250 -16 14 -43 40 -60 57 -82 80 -257 216 -366 284 -30 19 -57
37 -60 40 -19 22 -299 164 -419 212 -134 53 -288 104 -346 115 -11 2 -38 8
-60 14 -45 13 -69 18 -105 24 -14 2 -36 7 -50 10 -14 3 -45 8 -70 10 -25 3
-63 8 -85 11 -22 3 -58 8 -80 11 -74 10 -2875 11 -2875 2 0 -6 -7 -6 -18 0
-14 7 -20 5 -28 -7z m76 -2 c0 -5 -2 -10 -4 -10 -3 0 -8 5 -11 10 -3 6 -1 10
4 10 6 0 11 -4 11 -10z"/>
</g>
</svg>
